<?xml version="1.0" encoding="UTF-8" standalone="no"?>
<!-- Created with Inkscape (http://www.inkscape.org/) -->

<svg
   width="21.25mm"
   height="36mm"
   viewBox="0 0 210 200"
   version="1.1"
   id="svg5"
   xml:space="preserve"
   xmlns:inkscape="http://www.inkscape.org/namespaces/inkscape"
   xmlns:sodipodi="http://sodipodi.sourceforge.net/DTD/sodipodi-0.dtd"
   xmlns="http://www.w3.org/2000/svg"
   xmlns:svg="http://www.w3.org/2000/svg"><sodipodi:namedview
     id="namedview7"
     pagecolor="#ffffff"
     bordercolor="#999999"
     borderopacity="1"
     inkscape:showpageshadow="0"
     inkscape:pageopacity="0"
     inkscape:pagecheckerboard="0"
     inkscape:deskcolor="#d1d1d1"
     inkscape:document-units="mm"
     showgrid="false" /><defs
     id="defs2" /><g
     inkscape:label="Layer 1"
     inkscape:groupmode="layer"
     id="layer1"><path
       style="fill:#d2ca20;fill-opacity:0.915493;stroke-width:0.264583"
       d="m 99.928864,223.14194 c -1.76675,-0.10505 -3.32478,-0.26055 -3.46229,-0.34554 -0.13752,-0.085 -1.54949,-0.34253 -3.13773,-0.57232 -3.92558,-0.56796 -12.226782,-3.28021 -12.494112,-4.0822 -0.0892,-0.2675 0.0544,-0.31589 0.56047,-0.18888 5.11617,1.28408 34.195788,0.34112 40.763178,-1.32181 0.89114,-0.22565 1.97745,-0.467 2.41401,-0.53634 0.43656,-0.0693 1.03188,-0.22822 1.32292,-0.35308 0.29104,-0.12486 1.31839,-0.47084 2.28301,-0.76885 13.55645,-4.18818 25.88083,-16.65579 28.92667,-29.26287 0.2461,-1.01865 0.63284,-2.4474 0.85942,-3.175 2.16104,-6.93955 -0.0292,-20.45427 -4.97722,-30.71099 -0.56673,-1.17479 -1.03042,-2.26338 -1.03042,-2.41909 0,-0.1557 -0.1845,-0.35389 -0.40999,-0.44042 -0.2255,-0.0865 -0.69231,-0.79571 -1.03737,-1.57595 -0.34506,-0.78023 -0.7901,-1.58538 -0.98897,-1.78921 -1.50252,-1.53989 -2.05223,-3.83422 -0.60616,-2.5299 0.43644,0.39367 1.32931,1.1942 1.98415,1.77896 1.81322,1.61916 1.78419,1.59084 3.47727,3.3932 3.76139,4.00417 6.81165,9.30823 8.30971,14.44965 3.36655,11.55414 0.93168,28.19003 -5.53768,37.83541 -5.10416,7.60997 -12.95514,14.45495 -19.87534,17.32859 -0.7276,0.30214 -1.54189,0.67188 -1.80954,0.82163 -6.1691,3.45186 -21.07479,5.32483 -35.533986,4.46501 z m 7.527656,-13.17231 c 0.19065,-0.12836 1.6194,-0.25299 3.175,-0.27695 1.55561,-0.024 3.36415,-0.12769 4.019,-0.23051 l 1.19062,-0.18694 -1.45521,-0.18091 c -0.80036,-0.0995 -2.70536,-0.19308 -4.23333,-0.20797 -10.625106,-0.10353 -13.976136,-1.87011 -7.87645,-4.15226 0.62126,-0.23244 1.72488,-0.66539 2.45248,-0.96212 1.05167,-0.42887 2.02822,-0.55423 4.76251,-0.61134 8.64845,-0.18065 11.67038,-0.53388 11.58525,-1.35422 -0.0518,-0.49924 0.0345,-0.527 1.05708,-0.34001 0.77117,0.14102 1.43926,0.0839 2.17309,-0.18577 0.58277,-0.21417 1.4763,-0.51326 1.98562,-0.66464 0.50933,-0.15139 1.55465,-0.56082 2.32295,-0.90986 0.76829,-0.34905 1.44653,-0.63462 1.50718,-0.63462 0.24372,0 3.22299,-1.8395 3.81713,-2.35682 0.34969,-0.30448 0.70903,-0.5536 0.79853,-0.5536 0.42136,0 3.56824,-3.27783 5.08025,-5.29167 2.67982,-3.56924 3.515,-5.53809 4.88223,-11.50937 0.63196,-2.76006 -0.19208,-11.19299 -1.49693,-15.31917 -0.13343,-0.4219 -0.24259,-1.15901 -0.24259,-1.63803 0,-0.47902 -0.1071,-0.93714 -0.238,-1.01804 -0.1309,-0.0809 -0.38318,-0.77253 -0.56063,-1.53697 -0.17745,-0.76443 -0.47681,-1.74706 -0.66523,-2.18362 -1.23748,-2.86718 -1.47856,-8.33438 -0.36751,-8.33438 1.24804,0 6.30599,8.63426 7.74965,13.22917 0.41031,1.30593 1.02889,3.51052 1.44766,5.15937 2.35932,9.28954 -0.28339,19.80569 -7.08116,28.17813 -1.93572,2.38411 -3.34933,3.7528 -6.25865,6.05978 -3.12309,2.4765 -9.30488,5.29404 -13.14227,5.99 -0.54571,0.099 -0.99219,0.28802 -0.99219,0.42012 0,0.1321 -0.30235,0.16429 -0.67189,0.0715 -0.47407,-0.11898 -0.64935,-0.0686 -0.59532,0.17109 0.16219,0.71951 -3.68195,1.28384 -9.97758,1.46473 -2.63763,0.0758 -4.35456,0.0327 -4.15129,-0.10414 z m -42.944548,-4.8198 c -6.343771,-0.81569 -12.586291,-2.29235 -16.139581,-3.81781 -0.43657,-0.18742 -1.32575,-0.56434 -1.97596,-0.83762 -4.01818,-1.68876 -4.71367,-2.40734 -2.18823,-2.26088 3.38105,0.19609 12.45143,0.0777 13.68918,-0.1787 0.72761,-0.15071 2.334951,-0.46841 3.571881,-0.706 3.729,-0.71627 8.45054,-1.95381 11.1125,-2.91264 4.2018,-1.51349 9.78345,-4.19222 10.89773,-5.23002 0.3912,-0.36435 0.77816,-0.59557 0.8599,-0.51383 0.0817,0.0817 0.14862,0.01 0.14862,-0.16006 0,-0.16977 0.17859,-0.30868 0.39687,-0.30868 0.5185,0 0.50063,-0.16083 -0.0827,-0.74414 -0.5916,-0.5916 -1.06568,-0.4598 -1.38712,0.38566 -0.52937,1.39234 -7.65832,-5.88096 -7.65832,-7.81339 0,-0.12592 -0.30827,-0.926 -0.68504,-1.77796 -1.61733,-3.65706 -2.53685,-11.70463 -1.7049,-14.921 0.16939,-0.65485 0.48269,-2.20266 0.69623,-3.43959 0.21354,-1.23692 0.49493,-2.60614 0.62532,-3.0427 0.13038,-0.43657 0.52625,-1.74625 0.87972,-2.91042 0.35346,-1.16417 0.80008,-2.65245 0.99249,-3.30729 0.19241,-0.65485 0.43288,-1.30969 0.53438,-1.45521 0.10149,-0.14552 0.27317,-0.56224 0.38149,-0.92604 0.27416,-0.92075 2.58741,-5.55372 3.9632,-7.9375 0.62991,-1.09141 1.41599,-2.49039 1.74684,-3.10885 0.33087,-0.61847 0.69953,-1.12448 0.81925,-1.12448 0.11973,0 0.21769,-0.22963 0.21769,-0.51027 0,-0.28065 0.14883,-0.6676 0.33073,-0.8599 0.41982,-0.44382 1.44077,-2.00424 2.695572,-4.11994 0.53942,-0.90951 1.07732,-1.65365 1.19533,-1.65365 0.11801,0 0.3006,-0.26789 0.40576,-0.59531 0.16884,-0.52569 0.20613,-0.53872 0.31887,-0.11136 0.0702,0.26617 0.003,0.80195 -0.14879,1.19062 -0.28583,0.73059 -0.43911,3.37031 -0.70937,12.21606 -0.23815,7.79506 0.36334,16.57085 1.44168,21.03437 0.14063,0.58208 0.40046,1.83224 0.57741,2.77812 0.7077,3.78308 1.0196,2.25305 0.70116,-3.43958 -0.26013,-4.65034 0.27774,-22.96655 1.07612,-36.64479 0.19217,-3.29244 1.00364,-5.38901 2.74333,-7.08792 0.26659,-0.26032 0.4847,-0.68933 0.4847,-0.95334 0,-0.68654 1.18109,-3.84925 1.8152,-4.8607 0.92139,-1.46971 1.28101,-2.37104 1.87237,-4.69284 0.8884,-3.48799 1.219836,-4.35858 1.694606,-4.45117 0.24126,-0.047 0.43865,0.0537 0.43865,0.22393 0,0.31599 0.90547,1.82077 3.37344,5.60622 0.76398,1.17183 1.38907,2.23392 1.38907,2.36019 0,0.12627 0.10518,0.22958 0.23373,0.22958 0.12854,0 0.30904,0.20836 0.4011,0.46302 0.19178,0.53054 0.4321,0.92229 1.8869,3.07599 0.57758,0.85504 1.16921,1.7484 1.31473,1.98523 0.37887,0.61659 6.45018,9.81407 7.04385,10.67078 0.27322,0.39429 0.49677,0.84258 0.49677,0.9962 0,0.15361 0.35719,0.9122 0.79375,1.68575 0.95894,1.69913 0.96932,1.7936 0.15488,1.40924 -0.35138,-0.16582 -0.58248,-0.39275 -0.51355,-0.50427 0.0689,-0.11152 -0.0395,-0.20277 -0.24105,-0.20277 -0.2015,0 -0.63696,-0.28803 -0.96769,-0.64007 -0.33073,-0.35205 -1.15613,-0.87875 -1.83422,-1.17046 -0.6781,-0.29171 -1.49147,-0.80735 -1.8075,-1.14586 -0.31603,-0.33852 -1.26755,-1.34287 -2.1145,-2.23189 -0.84695,-0.88902 -2.01616,-2.14385 -2.59824,-2.78851 -3.66395,-4.05783 -6.09872,-6.39448 -6.51753,-6.25487 -0.19793,0.066 -0.1552,0.2451 0.12539,0.5257 0.23409,0.23409 0.83411,1.12175 1.33336,1.97256 0.49926,0.85082 1.24641,1.99169 1.66034,2.53527 0.41393,0.54358 1.22885,1.65724 1.81094,2.47479 0.58208,0.81756 1.26669,1.71226 1.52135,1.98823 0.25466,0.27598 0.46302,0.55995 0.46302,0.63104 0,0.17103 0.47315,0.75139 3.32707,4.08098 1.32056,1.54066 2.74392,3.337 3.16302,3.99185 0.41909,0.65484 1.25179,1.78593 1.85043,2.51354 1.49411,1.81599 2.72521,3.6599 3.19627,4.78729 0.5122,1.22587 0.99853,0.8742 1.42453,-1.03009 0.16929,-0.75677 0.40666,-1.67361 0.52749,-2.03741 0.39821,-1.199 1.29619,-5.65058 1.57447,-7.80522 0.15037,-1.16416 0.41277,-3.05129 0.58312,-4.19361 0.3497,-2.34497 0.15908,-12.73691 -0.25794,-14.06264 -0.13733,-0.43656 -0.46503,-1.80578 -0.72823,-3.04271 -0.26319,-1.23692 -0.70533,-2.84427 -0.98252,-3.57187 -0.2772,-0.72761 -0.67757,-1.79917 -0.88972,-2.38125 -0.707,-1.93983 -3.69767,-7.695706 -4.87704,-9.386396 -0.64024,-0.917826 -1.84331,-2.634176 -2.67348,-3.814106 -0.83018,-1.179933 -1.93149,-2.760797 -2.44736,-3.513034 -0.51588,-0.752234 -1.50352,-2.003705 -2.19476,-2.781046 -0.69124,-0.777338 -1.37587,-1.602438 -1.52139,-1.833552 -0.94064,-1.493911 -2.90463,-3.654327 -3.12329,-3.435667 -0.41168,0.411676 0.008,1.461542 1.00735,2.521413 0.5161,0.547219 1.10735,1.321726 1.31389,1.721127 0.20654,0.3994 1.00056,1.66773 1.7645,2.818511 0.76394,1.150784 1.74051,2.806708 2.17016,3.679833 0.42965,0.873125 0.99104,1.825625 1.24753,2.116667 1.58127,1.794298 2.8314,5.953124 1.78949,5.953124 -0.3047,0 -0.48109,0.194017 -0.48109,0.529167 0,0.291042 0.11906,0.529167 0.26458,0.529167 0.14552,0 0.26459,0.238125 0.26459,0.529162 0,0.29105 0.0945,0.52917 0.20992,0.52917 0.11546,0 0.33704,0.47625 0.49241,1.05833 0.25538,0.9568 0.23524,1.05834 -0.20992,1.05834 -0.27083,0 -0.49241,0.11906 -0.49241,0.26458 0,0.14552 -0.12325,0.26458 -0.27389,0.26458 -0.18881,0 -0.18881,-0.15899 0,-0.51177 0.49092,-0.9173 0.34537,-2.13406 -0.25528,-2.13406 -0.43039,0 -0.52917,0.17639 -0.52917,0.94494 0,1.50715 -1.58152,2.441 -1.98437,1.17173 -0.12608,-0.39725 -0.40032,-0.52917 -1.10004,-0.52917 -0.9468,0 -0.96782,-0.0167 -2.80516,-2.22712 -1.76639,-2.125058 -1.5357,-0.443078 0.27733,2.02206 0.99266,1.34971 2.07763,2.93027 2.41103,3.51235 0.66315,1.15777 1.73262,2.65412 3.26736,4.57154 0.5457,0.68178 0.99219,1.34433 0.99219,1.47234 0,0.12802 0.83749,1.48725 1.86109,3.02053 1.97955,2.96521 2.03374,3.16495 1.01458,3.73973 -0.96585,0.54472 -7.12801,-6.00567 -13.12201,-13.94871 l -2.26134,-2.99666 0.17261,-1.857215 c 0.31274,-3.364939 1.34655,-3.74759 2.79796,-1.035622 0.16241,0.303477 0.42308,0.551778 0.57926,0.551778 0.45704,0 -0.005,-1.380487 -0.7099,-2.122347 -1.02315,-1.076367 -1.19517,-11.327609 -0.26132,-15.573319 0.43711,-1.987314 -1.20206,-10.515552 -2.87931,-14.980373 -0.21867,-0.582083 -0.4028,-1.676385 -0.40919,-2.431781 -0.006,-0.755396 -0.14104,-1.453443 -0.29924,-1.551215 -0.1582,-0.09777 -0.22875,-0.402951 -0.15678,-0.678176 0.0952,-0.364113 -0.0426,-0.543954 -0.506106,-0.660281 -0.35034,-0.08793 -0.63698,-0.325557 -0.63698,-0.528063 0,-0.755505 0.79415,-0.320553 2.292656,1.255679 0.84909,0.893129 4.47374,4.554301 8.05477,8.135937 9.96209,9.963795 13.90674,14.825768 18.37787,22.651648 9.02237,15.79196 13.22709,35.25 11.09182,51.32917 -0.78191,5.88801 -0.84772,6.30103 -1.30702,8.20209 -0.2461,1.01864 -0.55513,2.36142 -0.68674,2.98394 -0.25904,1.22525 -1.53075,5.0983 -2.23464,6.80564 -0.69742,1.69166 -2.35973,5.27937 -2.51311,5.42396 -0.0772,0.0728 -0.47404,0.78713 -0.8819,1.5875 -0.90069,1.76745 -0.95538,1.85717 -3.02339,4.96008 -0.9095,1.36466 -1.65364,2.53815 -1.65364,2.60776 0,0.35699 -8.78909,10.30212 -9.25701,10.47458 -0.12166,0.0448 -1.00576,0.82568 -1.96467,1.73518 -0.95891,0.90951 -1.80197,1.65365 -1.87347,1.65365 -0.17959,0 -1.36261,1.0187 -2.38126,2.05052 -0.46691,0.47294 -0.94135,0.85989 -1.05431,0.85989 -0.36488,0 -3.66756,1.66618 -5.16513,2.60577 -4.47749,2.80923 -11.586726,5.90696 -16.823226,7.33043 -6.641802,1.80548 -8.047072,2.00026 -15.191352,2.10556 -3.56526,0.0525 -7.31573,-0.0116 -8.33437,-0.1426 z m 42.166318,-38.54102 c 0.0311,-1.86105 0.17072,-3.49788 0.31024,-3.63739 0.13951,-0.13952 0.25365,-1.01158 0.25365,-1.93793 0,-0.92635 0.13712,-1.94048 0.30471,-2.25362 0.16759,-0.31315 0.40248,-1.28759 0.52196,-2.16542 0.73436,-5.39498 0.897,-5.81594 2.17343,-5.62542 1.54392,0.23044 2.07417,-0.16039 1.57504,-1.16093 -0.23285,-0.46674 -0.44197,-1.51393 -0.46471,-2.32709 -0.0271,-0.97013 -0.25457,-1.88782 -0.66146,-2.66908 -0.34106,-0.65485 -0.65231,-1.54782 -0.69168,-1.98438 -0.17873,-1.98215 -4.13035,-8.06979 -5.23828,-8.06979 -0.22948,0 -0.61226,-0.29766 -0.85064,-0.66147 -0.94695,-1.44523 -1.21966,-0.0674 -0.49915,2.52204 1.9362,6.95845 2.35022,11.03255 1.86776,18.38005 -0.49024,7.46615 -0.36916,12.80875 0.31951,14.09841 0.86915,1.62761 1.01618,1.28605 1.07962,-2.50798 z"
       id="path7077" /></g></svg>
